<svg width="200" height="200" viewBox="0 0 200 200" xmlns="http://www.w3.org/2000/svg">
  <!-- Background circle -->
  <circle cx="100" cy="100" r="95" fill="#2d5a3d" stroke="#4a7c59" stroke-width="3"/>
  
  <!-- Leaf shape -->
  <path d="M100 50 C120 50, 140 70, 140 100 C140 120, 130 135, 120 140 C110 145, 100 140, 100 140 C100 140, 90 145, 80 140 C70 135, 60 120, 60 100 C60 70, 80 50, 100 50 Z" fill="#4a7c59"/>
  
  <!-- Leaf vein -->
  <path d="M100 60 Q110 90, 100 130" stroke="#6b8f47" stroke-width="2" fill="none"/>
  
  <!-- Letter E -->
  <rect x="70" y="110" width="20" height="4" fill="#ffd700"/>
  <rect x="70" y="120" width="15" height="4" fill="#ffd700"/>
  <rect x="70" y="130" width="20" height="4" fill="#ffd700"/>
  <rect x="70" y="110" width="4" height="24" fill="#ffd700"/>
  
  <!-- Letter c -->
  <path d="M95 120 C95 116, 98 113, 102 113 C104 113, 106 114, 107 115 L109 112 C107 111, 105 110, 102 110 C96 110, 92 114, 92 120 C92 126, 96 130, 102 130 C105 130, 107 129, 109 128 L107 125 C106 126, 104 127, 102 127 C98 127, 95 124, 95 120 Z" fill="#ffd700"/>
  
  <!-- Letter o -->
  <circle cx="118" cy="120" r="7" fill="none" stroke="#ffd700" stroke-width="3"/>
  
  <!-- Letter E (second) -->
  <rect x="70" y="140" width="20" height="4" fill="#ffd700"/>
  <rect x="70" y="150" width="15" height="4" fill="#ffd700"/>
  <rect x="70" y="160" width="20" height="4" fill="#ffd700"/>
  <rect x="70" y="140" width="4" height="24" fill="#ffd700"/>
  
  <!-- Letter a -->
  <path d="M95 150 C95 146, 98 143, 102 143 C106 143, 109 146, 109 150 L109 160 C109 162, 107 164, 105 164 L99 164 C97 164, 95 162, 95 160 Z M102 146 C100 146, 98 147, 98 150 L98 157 L106 157 L106 150 C106 147, 104 146, 102 146 Z" fill="#ffd700"/>
  
  <!-- Letter t -->
  <rect x="113" y="143" width="12" height="3" fill="#ffd700"/>
  <rect x="117" y="143" width="4" height="18" fill="#ffd700"/>
  <rect x="115" y="158" width="8" height="3" fill="#ffd700"/>
  
  <!-- Letter s -->
  <path d="M125 150 C125 147, 127 145, 130 145 C132 145, 134 146, 135 147 L137 144 C135 143, 133 142, 130 142 C125 142, 122 145, 122 150 C122 152, 123 154, 125 155 L130 157 C131 158, 132 159, 132 160 C132 161, 131 162, 130 162 C128 162, 127 161, 126 160 L124 163 C125 164, 127 165, 130 165 C133 165, 135 163, 135 160 C135 158, 134 156, 132 155 L127 153 C126 152, 125 151, 125 150 Z" fill="#ffd700"/>
  
  <!-- Decorative elements -->
  <circle cx="40" cy="60" r="3" fill="#ffed4a" opacity="0.7"/>
  <circle cx="160" cy="70" r="2" fill="#ffed4a" opacity="0.7"/>
  <circle cx="45" cy="140" r="2" fill="#ffed4a" opacity="0.7"/>
  <circle cx="155" cy="150" r="3" fill="#ffed4a" opacity="0.7"/>
  
  <!-- Small leaves -->
  <path d="M35 80 C40 80, 45 85, 45 90 C45 95, 40 100, 35 100 C30 100, 25 95, 25 90 C25 85, 30 80, 35 80 Z" fill="#6b8f47" opacity="0.6"/>
  <path d="M165 120 C170 120, 175 125, 175 130 C175 135, 170 140, 165 140 C160 140, 155 135, 155 130 C155 125, 160 120, 165 120 Z" fill="#6b8f47" opacity="0.6"/>
</svg>
